<svg xmlns="http://www.w3.org/2000/svg" xmlns:xlink="http://www.w3.org/1999/xlink" width="20" height="22" version="1.1" viewBox="0 0 20 22"><title>Altair logo</title><g id="Page-1" fill="none" fill-rule="evenodd" stroke="none" stroke-width="1"><g id="App-Screen" transform="translate(-12.000000, -14.000000)"><g id="Top-section"><g id="Pubsicle-logo"><g transform="translate(12.000000, 14.000000)"><rect id="Rectangle-path" width=".949" height="17.976" x="5.546" y="-.243" fill="#368CBF" fill-rule="nonzero" transform="translate(6.020274, 8.745006) rotate(-149.999272) translate(-6.020274, -8.745006)"/><rect id="Rectangle-path" width="18.303" height=".932" x=".846" y="15.052" fill="#368CBF" fill-rule="nonzero"/><rect id="Rectangle-path" width="10.571" height=".932" x=".737" y="17.302" fill="#33363B" fill-rule="nonzero" transform="translate(6.022451, 17.767688) rotate(-149.999272) translate(-6.022451, -17.767688)"/><rect id="Rectangle-path" width="10.571" height=".932" x="8.69" y="3.772" fill="#33363B" fill-rule="nonzero" transform="translate(13.975274, 4.237744) rotate(-149.999272) translate(-13.975274, -4.237744)"/><rect id="Rectangle-path" width=".949" height="10.382" x="5.551" y="-.957" fill="#33363B" fill-rule="nonzero" transform="translate(6.024989, 4.234197) rotate(-120.000728) translate(-6.024989, -4.234197)"/><rect id="Rectangle-path" width="18.302" height=".932" x="4.831" y="8.279" fill="#368CBF" fill-rule="nonzero" transform="translate(13.981783, 8.745174) rotate(-120.000728) translate(-13.981783, -8.745174)"/><rect id="Rectangle-path" width=".949" height="10.383" x="1.571" y="5.809" fill="#33363B" fill-rule="nonzero"/><rect id="Rectangle-path" width=".949" height="10.383" x="17.48" y="5.809" fill="#33363B" fill-rule="nonzero"/><rect id="Rectangle-path" width=".829" height="9.03" x="13.561" y="13.248" fill="#33363B" fill-rule="nonzero" transform="translate(13.975234, 17.762508) rotate(-120.000728) translate(-13.975234, -17.762508)"/><path id="Shape" fill="#368CBF" fill-rule="nonzero" d="M19.6857143,16.4943878 C19.1371429,17.4316327 17.9142857,17.7515306 16.96,17.2127551 C16.0057143,16.6739796 15.68,15.4729592 16.2285714,14.5357143 C16.7771429,13.5984694 18,13.2785714 18.9542857,13.8173469 C19.9142857,14.3617347 20.24,15.5571429 19.6857143,16.4943878"/><path id="Shape" fill="#7EBC59" fill-rule="nonzero" d="M3.76571429,7.46428571 C3.21714286,8.40153061 1.99428571,8.72142857 1.04,8.18265306 C0.0857142857,7.64387755 -0.24,6.44285714 0.308571429,5.50561224 C0.857142857,4.56836735 2.08,4.24846939 3.03428571,4.7872449 C3.98857143,5.33163265 4.31428571,6.52704082 3.76571429,7.46428571"/><path id="Shape" fill="#368CBF" fill-rule="nonzero" d="M0.314285714,16.4943878 C-0.234285714,15.5571429 0.0914285714,14.3617347 1.04571429,13.8173469 C2,13.2785714 3.21714286,13.5984694 3.77142857,14.5357143 C4.32,15.4729592 3.99428571,16.6683673 3.04,17.2127551 C2.08,17.7515306 0.862857143,17.4316327 0.314285714,16.4943878"/><path id="Shape" fill="#7EBC59" fill-rule="nonzero" d="M16.2342857,7.46428571 C15.6857143,6.52704082 16.0114286,5.33163265 16.9657143,4.7872449 C17.92,4.24846939 19.1371429,4.56836735 19.6914286,5.50561224 C20.24,6.44285714 19.9142857,7.63826531 18.96,8.18265306 C18.0057143,8.72142857 16.7828571,8.40153061 16.2342857,7.46428571"/><path id="Shape" fill="#7EBC59" fill-rule="nonzero" d="M10,21.9887755 C8.89714286,21.9887755 8.00571429,21.1132653 8.00571429,20.030102 C8.00571429,18.9469388 8.89714286,18.0714286 10,18.0714286 C11.1028571,18.0714286 11.9942857,18.9469388 11.9942857,20.030102 C11.9942857,21.1076531 11.1028571,21.9887755 10,21.9887755"/><path id="Shape" fill="#368CBF" fill-rule="nonzero" d="M10,3.92857143 C8.89714286,3.92857143 8.00571429,3.05306122 8.00571429,1.96989796 C8.00571429,0.886734694 8.89714286,0.0112244898 10,0.0112244898 C11.1028571,0.0112244898 11.9942857,0.886734694 11.9942857,1.96989796 C11.9942857,3.05306122 11.1028571,3.92857143 10,3.92857143"/></g></g></g></g></g></svg>